# xmcd
#
# Track frame offsets:
#	150
#	19455
#	36507
#	47828
#	71434
#	79964
#	99772
#	127154
#
# Disc length: 2049 seconds
#
# Revision: 2
# Processed by: cddbd v1.5.1PL2 Copyright (c) Steve Scherf et al.
# Submitted via: EasyCDDAExtractor 8.0.2.1
#
DISCID=6d07ff08
DTITLE=Dio - Philipshalle Dusseldorf 14-11-93 Disc 2
DYEAR=1993
DGENRE=Hard Rock
TTITLE0=Holy Diver
TTITLE1=Heaven and Hell
TTITLE2=Man On The Silver Mountain
TTITLE3=Drum Solo
TTITLE4=Heaven and Hell Reprise
TTITLE5=Jesus Mary and The Holy Ghost
TTITLE6=Hollywood Black
TTITLE7=The Last In Line
EXTD=
EXTT0=
EXTT1=
EXTT2=
EXTT3=
EXTT4=
EXTT5=
EXTT6=
EXTT7=
PLAYORDER=
